Coordinates
version=1
nRows=10
nColumns=40
inDegrees=yes

Units are S.I. units (second, meters, Newtons, ...)
Angles are in degrees.

endheader
time	pelvis_tilt	pelvis_list	pelvis_rotation	pelvis_tx	pelvis_ty	pelvis_tz	hip_flexion_r	hip_adduction_r	hip_rotation_r	knee_angle_r	knee_angle_r_beta	ankle_angle_r	subtalar_angle_r	mtp_angle_r	hip_flexion_l	hip_adduction_l	hip_rotation_l	knee_angle_l	knee_angle_l_beta	ankle_angle_l	subtalar_angle_l	mtp_angle_l	lumbar_extension	lumbar_bending	lumbar_rotation	arm_flex_r	arm_add_r	arm_rot_r	elbow_flex_r	pro_sup_r	wrist_flex_r	wrist_dev_r	arm_flex_l	arm_add_l	arm_rot_l	elbow_flex_l	pro_sup_l	wrist_flex_l	wrist_dev_l
     24.94000000	     -8.37706386	     -6.49689258	    -10.31436146	      0.91752771	      0.92854832	      0.42256927	     29.02053948	      0.49320866	     -6.30246972	     27.23995540	     27.23995540	      5.25975503	     -0.74716564	     -5.14939615	     13.23215980	     -8.02722648	    -13.18925356	     21.91017778	     21.91017778	     17.57726461	    -15.64859824	      5.12801157	    -10.96744409	      6.74329424	      2.28260292	    -11.98107758	    -10.85319408	    -11.23130699	     32.30817572	     46.00883903	      0.00000000	      0.00000000	     23.97462661	    -20.11578722	    -15.80223446	     71.49197508	     48.15267346	      0.00000000	      0.00000000
     24.95785714	     -8.57838779	     -6.32817891	    -10.63576608	      0.91656387	      0.92787086	      0.42503373	     28.17593734	      0.84188340	     -6.89205770	     22.54837707	     22.54837707	      5.53487088	      2.90603146	     -2.48330290	     12.82801097	     -8.00370773	    -13.66186678	     21.43008072	     21.43008072	     17.19160011	    -15.70500801	      3.68371644	    -10.85320205	      6.61162388	      2.11826270	    -12.63333882	    -10.86521688	    -10.90540529	     33.80946730	     45.92237656	      0.00000000	      0.00000000	     24.99143170	    -20.22407119	    -16.57079992	     72.66429939	     48.22331033	      0.00000000	      0.00000000
     24.97571429	     -8.71844802	     -5.98126733	    -10.89600227	      0.91597063	      0.92681142	      0.42750731	     27.43135324	      0.96342797	     -7.48662517	     18.58204274	     18.58204274	      5.65771702	      6.55299476	     -0.07435590	     12.43268590	     -7.78233772	    -14.07830742	     21.09700638	     21.09700638	     17.20317231	    -15.51532882	      2.95928762	    -10.70388728	      6.31628477	      2.17632529	    -12.99893447	    -10.96345303	    -10.62002152	     34.17644846	     45.88997179	      0.00000000	      0.00000000	     26.14863984	    -20.32146491	    -16.67904886	     73.41973241	     48.24561406	      0.00000000	      0.00000000
     24.99357143	     -8.83146011	     -5.69868484	    -11.04734503	      0.91570704	      0.92552185	      0.43017733	     26.70881564	      1.22063648	     -7.68885592	     15.20793569	     15.20793569	      5.21934994	      8.87014090	      1.29876555	     12.10771201	     -7.63023361	    -14.31354729	     20.98403069	     20.98403069	     17.44199403	    -15.43920308	      2.61829077	    -10.52423723	      6.09487384	      2.11894250	    -13.08566252	    -10.96994326	    -10.54677755	     34.27564687	     45.88160444	      0.00000000	      0.00000000	     27.16154594	    -20.44402473	    -16.73118240	     73.99271302	     48.26483005	      0.00000000	      0.00000000
     25.01142857	     -8.83770824	     -5.38832595	    -11.13764694	      0.91582343	      0.92420873	      0.43291057	     26.16488602	      1.27332721	     -8.25989084	     12.96324825	     12.96324825	      5.04308983	     11.41138241	      2.82525797	     11.66580079	     -7.44804743	    -14.61884286	     20.89242451	     20.89242451	     17.66384155	    -15.22173416	      2.05407874	    -10.44254565	      5.86575381	      2.17329829	    -13.12417396	    -10.99678867	    -10.43678082	     34.40848177	     45.87072169	      0.00000000	      0.00000000	     28.18048468	    -20.39759892	    -16.79853174	     74.55817886	     48.28394731	      0.00000000	      0.00000000
     25.02928571	     -8.92124472	     -5.11848119	    -11.15994785	      0.91625069	      0.92281218	      0.43580484	     25.85632947	      1.37187166	     -8.52096511	     11.53124852	     11.53124852	      4.70077305	     12.79339774	      3.66724161	     11.30156055	     -7.30387371	    -14.75801588	     20.80956579	     20.80956579	     17.92634686	    -15.10927136	      1.65488566	    -10.20069263	      5.70991229	      2.18386097	    -13.05264155	    -11.03702005	    -10.36403610	     34.43364571	     45.86707006	      0.00000000	      0.00000000	     28.95240438	    -20.30168635	    -16.82428333	     74.94176766	     48.29597603	      0.00000000	      0.00000000
     25.04714286	     -9.02148755	     -4.83614336	    -11.10772881	      0.91692759	      0.92143408	      0.43883045	     25.84634836	      1.39191904	     -8.53721163	     11.10175484	     11.10175484	      4.44772266	     13.23019029	      3.83831639	     10.96879901	     -7.14387499	    -14.80357088	     20.75441272	     20.75441272	     18.20675574	    -15.03158804	      1.45137751	     -9.92016585	      5.57549909	      2.10926676	    -12.78908787	    -11.13087541	    -10.34885829	     34.48362725	     45.86672063	      0.00000000	      0.00000000	     29.61726770	    -20.27903818	    -16.82617115	     75.22036664	     48.30483713	      0.00000000	      0.00000000
     25.06500000	     -8.90644440	     -4.74033705	    -11.01697441	      0.91830615	      0.92071085	      0.44204554	     25.41423560	      1.49710747	     -8.83956314	     10.82656358	     10.82656358	      4.01036909	     13.85276979	      3.47452769	     10.16175013	     -7.12904261	    -14.95965028	     20.38626172	     20.38626172	     18.44979191	    -14.67340191	      1.14294867	     -9.87764558	      5.63866044	      2.31365121	    -12.62952831	    -11.20995707	    -10.26506029	     34.18741019	     45.87678430	      0.00000000	      0.00000000	     30.04382137	    -19.84480021	    -16.85381189	     75.50490174	     48.31206400	      0.00000000	      0.00000000
     25.08285714	     -8.98730066	     -4.67919429	    -10.85900049	      0.91982288	      0.91983358	      0.44544090	     25.29668461	      1.63208198	     -8.92603239	     11.08270265	     11.08270265	      3.77905544	     13.74088493	      3.38317392	      9.70236218	     -7.19417599	    -14.84591533	     20.27162675	     20.27162675	     18.75077170	    -14.62892774	      1.03621461	     -9.55954644	      5.76627522	      2.25674809	    -12.39462877	    -11.34697996	    -10.27897520	     34.21904382	     45.87864679	      0.00000000	      0.00000000	     30.17908894	    -19.68458680	    -16.79854981	     75.57686594	     48.31003248	      0.00000000	      0.00000000
     25.10071429	     -8.77326435	     -4.54827190	    -10.61217097	      0.92193504	      0.91927419	      0.44897585	     25.05662703	      1.64568790	     -8.50926023	     11.81475672	     11.81475672	      2.13010177	     12.33754078	     -2.50390652	      8.67731148	     -7.14453342	    -15.07492673	     19.72516565	     19.72516565	     18.83294309	    -13.93315506	      0.51265279	     -9.52670547	      5.82988279	      2.24137774	    -11.42073448	    -11.50520021	    -10.28700460	     32.39986407	     45.97075506	      0.00000000	      0.00000000	     30.23684172	    -19.16998179	    -17.16851823	     75.81082452	     48.32722552	      0.00000000	      0.00000000
